<svg width="200" height="26" fill="none" xmlns="http://www.w3.org/2000/svg" viewBox="0 0 80 32" preserveAspectRatio="xMinYMid meet"><path d="M13.499 31.341c-4.38 0-7.74-1.204-10.02-3.673C1.2 25.2.03 21.738.03 17.251 0 15.204.36 13.187 1.08 11.26a12.523 12.523 0 0 1 2.88-4.456 12.073 12.073 0 0 1 4.35-2.77c1.77-.632 3.63-.963 5.49-.933 1.05 0 2.1.09 3.12.24.84.151 1.65.362 2.46.603.6.18 1.17.421 1.74.692.36.15.69.331 1.02.542l-1.74 4.908a14.87 14.87 0 0 0-2.91-1.114c-1.23-.332-2.49-.512-3.75-.482-.93 0-1.89.15-2.76.482a5.81 5.81 0 0 0-2.37 1.505c-.75.753-1.29 1.686-1.65 2.68-.45 1.264-.66 2.619-.63 3.974 0 1.174.15 2.348.42 3.492a7.512 7.512 0 0 0 1.32 2.8 6.34 6.34 0 0 0 2.4 1.867c1.14.482 2.34.692 3.57.662.78 0 1.59-.06 2.37-.15.72-.09 1.35-.241 1.89-.362.51-.12.99-.3 1.44-.511l1.11-.482 1.68 4.877a14.437 14.437 0 0 1-3.63 1.415 21.69 21.69 0 0 1-5.4.602ZM34.138 9.694c1.44 0 2.88.271 4.26.723 1.02.361 1.92.993 2.67 1.776.69.783 1.14 1.716 1.38 2.71.27 1.144.39 2.318.33 3.492l-.39 12.104-3.48.541c-1.8.181-3.6.241-5.4.181-1.2 0-2.4-.18-3.57-.452a8.447 8.447 0 0 1-2.76-1.234 5.726 5.726 0 0 1-1.71-2.168 7.316 7.316 0 0 1-.54-3.191c.03-1.054.3-2.108.84-3.01a5.294 5.294 0 0 1 1.98-1.928c.87-.511 1.8-.843 2.79-.993 1.08-.18 2.16-.271 3.24-.211.66 0 1.35.06 2.01.15.48.06.96.151 1.41.302v-.542a3.262 3.262 0 0 0-.84-2.409c-.57-.632-1.59-.963-3.09-.994-.96-.06-1.95 0-2.91.121-.87.06-1.71.24-2.52.512l-.54-4.697c.33-.09.75-.21 1.26-.301l1.65-.271 1.92-.15c.66-.06 1.32-.06 2.01-.06Zm-.09 17.041h1.65c.42 0 .81-.03 1.23-.09l.15-4.396-1.05-.21-1.29-.121-1.53.06c-.45.03-.87.15-1.29.331-.36.15-.63.422-.87.723-.21.331-.33.753-.33 1.144-.03.933.24 1.566.84 1.927s1.44.572 2.49.632ZM60.296 15.415c-.51-.15-1.14-.271-1.83-.422-.75-.15-1.5-.21-2.25-.21l-1.32.09c-.39.06-.75.12-1.14.21V30.8h-5.79V11.35c1.2-.421 2.43-.783 3.66-1.054 1.56-.33 3.15-.481 4.74-.481l1.14.06 1.32.15 1.32.241c.39.09.75.18 1.11.332l-.96 4.817Z" fill="#2DAB66"></path><path d="M72.865 3.402c4.02 0 7.11.722 9.27 2.137 2.16 1.415 3.24 3.764 3.24 6.985 0 3.222-1.08 5.6-3.27 7.046-2.19 1.445-5.31 2.167-9.36 2.167h-1.89V30.8h-6.09V4.123c1.38-.27 2.79-.451 4.2-.542 1.5-.12 2.79-.18 3.9-.18Zm.39 5.208h-1.29l-1.11.09v7.829h1.89c2.1 0 3.69-.271 4.77-.843 1.08-.572 1.59-1.656 1.59-3.222a3.635 3.635 0 0 0-.42-1.867 3.134 3.134 0 0 0-1.17-1.174 5.099 5.099 0 0 0-1.83-.632 16.5 16.5 0 0 0-2.43-.18ZM101.784 15.415c-.51-.15-1.11-.271-1.83-.422-.75-.15-1.5-.21-2.25-.21l-1.29.09c-.39.06-.78.12-1.17.21V30.8h-5.79V11.35c1.05-.361 2.28-.722 3.69-1.054a22.53 22.53 0 0 1 4.71-.481l1.14.06 1.32.15 1.32.241c.39.09.78.18 1.14.332l-.99 4.817ZM112.223 4.305c0 1.084-.33 1.927-1.02 2.53a3.72 3.72 0 0 1-4.86 0 3.109 3.109 0 0 1-1.05-2.53 3.35 3.35 0 0 1 1.05-2.529 3.72 3.72 0 0 1 4.86 0c.69.662 1.08 1.566 1.02 2.529Zm-.54 26.495h-5.79V10.236h5.79V30.8ZM116.153 20.533c0-1.445.24-2.86.72-4.215a9.885 9.885 0 0 1 5.399-5.75c1.41-.603 2.91-.904 4.44-.874 1.02 0 2.01.09 3 .301.9.211 1.8.482 2.64.843l-1.2 4.637c-.6-.21-1.2-.391-1.8-.542-.72-.15-1.44-.24-2.16-.24-1.71 0-3 .541-3.84 1.625-.84 1.084-1.259 2.469-1.259 4.215s.389 3.282 1.169 4.305c.78 1.024 2.19 1.506 4.14 1.506.75 0 1.53-.06 2.28-.181.75-.15 1.5-.361 2.22-.632l.81 4.757c-.81.33-1.65.572-2.52.752-1.11.211-2.22.302-3.36.302-1.65.03-3.3-.241-4.829-.843a9.428 9.428 0 0 1-3.33-2.289 9.332 9.332 0 0 1-1.92-3.402 15.82 15.82 0 0 1-.6-4.275ZM134.662 20.683c-.03-1.625.24-3.251.84-4.787.51-1.264 1.23-2.438 2.189-3.432a9.046 9.046 0 0 1 3.15-2.047 9.302 9.302 0 0 1 3.63-.723c2.91 0 5.19.903 6.9 2.68 1.71 1.776 2.52 4.426 2.52 7.888 0 .331-.03.692-.03 1.114 0 .421-.06.753-.09 1.054h-13.17a3.97 3.97 0 0 0 1.68 2.86c.99.692 2.31 1.054 3.99 1.054 1.05 0 2.1-.09 3.12-.301.87-.151 1.71-.392 2.52-.723l.78 4.757c-.42.18-.84.331-1.26.452-.57.18-1.14.3-1.74.421-.66.12-1.35.21-2.04.271-.72.09-1.44.12-2.16.12-1.65.03-3.27-.24-4.83-.812a8.922 8.922 0 0 1-5.369-5.63 14.35 14.35 0 0 1-.63-4.216Zm13.619-2.227a8.075 8.075 0 0 0-.24-1.446c-.15-.451-.39-.873-.66-1.264-.3-.361-.69-.662-1.14-.873a3.375 3.375 0 0 0-1.71-.362c-.57 0-1.14.09-1.65.332-.45.18-.84.481-1.17.873-.33.361-.57.783-.72 1.264-.18.482-.3.964-.39 1.476h7.68Z" fill="#000"></path><path d="M202.968 21.225c-2.22 1.144-4.8.904-5.28-.27-.48-1.175 1.14-2.138 2.37-3.373 1.23-1.234 3.09-1.836 4.44-.722 1.35 1.114 1.26 2.92-1.53 4.365Zm-8.28 3.312c-1.05 1.114-2.1 1.084-4.23 1.114-1.02.03-9.239 0-10.289-.03-2.04-.09-3.15-.09-4.2-1.174-1.05-1.084-.21-1.987 1.29-1.987l16.169.09c1.5.03 2.31.903 1.26 1.987Zm-21.749-3.583c-.449 1.175-3.059 1.415-5.249.271-2.82-1.445-2.7-3.432-1.56-4.365 1.14-.933 3.24-.452 4.44.722 1.2 1.175 2.789 2.288 2.369 3.372Zm1.77-15.114c2.13-1.264 5.37-1.746 10.71-1.746 5.339 0 9.359.663 11.609 2.048s3.45 3.853 3.6 6.352c-2.46.843-25.499.903-30.208 0 .84-2.83 1.95-5.269 4.289-6.654Zm34.798 13.97a14.148 14.148 0 0 0-2.04-4.967c-.39-.603-.84-1.145-1.349-1.656 1.559-.181 1.919-1.415 2.009-2.409.09-.993-1.38-1.054-2.429-.993-.84.03-1.62.36-2.22.933-.57-2.409-1.71-5.179-4.68-6.985a15.326 15.326 0 0 0-4.98-1.867c-.93-.18-1.95-.33-3.09-.451-1.14-.12-3.329-.211-5.309-.211s-3.54.06-5.04.21c-1.02.091-2.01.272-3 .482-1.59.301-3.12.874-4.5 1.686-2.519 1.536-3.779 4.336-4.949 6.865a3.485 3.485 0 0 0-1.86-.662c-1.08-.06-2.43 0-2.46.993-.03.994-.06 2.047 1.32 2.348-.48.512-.93 1.084-1.35 1.656a10.666 10.666 0 0 0-1.98 5.24 6.545 6.545 0 0 0 1.74 4.997c.06 1.806.09 4.125.12 4.998.09 1.595.93 1.565 3.9 1.505 1.86-.03 3.99.422 4.02-1.836.03-.542 0-1.114-.03-1.656 7.979 1.415 20.668 1.625 28.708.12-.03.422-.03.903-.03 1.536.06 2.258 2.16 1.806 4.05 1.836 2.939.06 3.809.09 3.869-1.505.03-.843.06-3.101.12-4.908a6.523 6.523 0 0 0 1.44-5.299Z" fill="#2DAB66"></path></svg>